<?xml version="1.0" standalone="no"?><!DOCTYPE svg PUBLIC "-//W3C//DTD SVG 1.1//EN" "http://www.w3.org/Graphics/SVG/1.1/DTD/svg11.dtd"><svg t="1618071252221" class="icon" viewBox="0 0 1024 1024" version="1.1" xmlns="http://www.w3.org/2000/svg" p-id="8805" width="32" height="32" xmlns:xlink="http://www.w3.org/1999/xlink"><defs><style type="text/css"></style></defs><path d="M897.5 390c0 105.2-85.3 190.5-190.5 190.5-65.8 0-123.8-33.3-158-84-20.5-30.4-32.5-67.1-32.5-106.5 0-105.2 85.3-190.5 190.5-190.5S897.5 284.8 897.5 390z" fill="#FECD44" p-id="8806"></path><path d="M305.1 645.9m-178.6 0a178.6 178.6 0 1 0 357.2 0 178.6 178.6 0 1 0-357.2 0Z" fill="#ffffff" p-id="8807" data-spm-anchor-id="a313x.7781069.0.i23" class=""></path><path d="M474.8 522.8m-169.7 0a169.7 169.7 0 1 0 339.4 0 169.7 169.7 0 1 0-339.4 0Z" fill="#ffffff" p-id="8808" data-spm-anchor-id="a313x.7781069.0.i22" class=""></path><path d="M634.6 692.5m-132 0a132 132 0 1 0 264 0 132 132 0 1 0-264 0Z" fill="#ffffff" p-id="8809" data-spm-anchor-id="a313x.7781069.0.i24" class=""></path><path d="M305.1 619.8h329.5v204.7H305.1z" fill="#ffffff" p-id="8810" data-spm-anchor-id="a313x.7781069.0.i21" class=""></path></svg>