<?xml version="1.0" standalone="no"?><!DOCTYPE svg PUBLIC "-//W3C//DTD SVG 1.1//EN" "http://www.w3.org/Graphics/SVG/1.1/DTD/svg11.dtd"><svg t="1618321272351" class="icon" viewBox="0 0 1024 1024" version="1.1" xmlns="http://www.w3.org/2000/svg" p-id="19813" xmlns:xlink="http://www.w3.org/1999/xlink" width="32" height="32"><defs><style type="text/css"></style></defs><path d="M511.9 63.9C264.8 63.9 63.7 265 63.7 512.2s201 448.2 448.2 448.2 448.2-201.1 448.2-448.2-201-448.3-448.2-448.3z m0 836.7c-214.2 0-388.4-174.2-388.4-388.4s174.3-388.4 388.4-388.4S900.4 298 900.4 512.2 726.1 900.6 511.9 900.6z" p-id="19814" fill="#8a8a8a"></path><path d="M359.9 321.2c-42.3 0-76.5 31.7-76.5 76.5 0 44.7 34.1 76.5 76.5 76.5 41.8 0 76-31.7 76-76.5s-34.1-76.5-76-76.5z m0 117.8c-22.6 0-38-16.8-38-41.4 0-24 15.4-41.4 38-41.4s38 17.3 38 41.4c0 24.6-15.4 41.4-38 41.4zM629.3 641c-56.3 0-92.8-46.6-92.8-124.1 0-76 39.9-122.2 94.7-122.2 26.5 0 45.7 10.1 63.5 27.9l39.4-44.3c-23.1-24-59.6-45.7-103.9-45.7-91.9 0-166.9 68.8-166.9 187.1 0 118.8 72.6 183.2 165 183.2 44.7 0 82.7-17.8 112-52.4l-39.9-43.3C681.7 627.6 660 641 629.3 641z" p-id="19815" fill="#8a8a8a"></path></svg>