<?xml version="1.0" standalone="no"?><!DOCTYPE svg PUBLIC "-//W3C//DTD SVG 1.1//EN" "http://www.w3.org/Graphics/SVG/1.1/DTD/svg11.dtd"><svg t="1618320921175" class="icon" viewBox="0 0 1024 1024" version="1.1" xmlns="http://www.w3.org/2000/svg" p-id="16328" xmlns:xlink="http://www.w3.org/1999/xlink" width="32" height="32"><defs><style type="text/css"></style></defs><path d="M603.7 89c18.2 0 36.3 3.7 52.3 10.6 14.2 6.2 26.3 14.9 34.2 24.4 11.8 14.5 9.7 25.2 8.9 28.8-6.6 32.2-18.6 47.4-28.4 57-14.9 14.6-36.1 26.5-60.7 40.1-23.5 13.1-50.2 27.9-78 48.9-20.4 15.3-37.6 33.1-51.3 52.8l-8.8 12.7c-11.2-40-16.4-77-15.5-110.2 1.2-40.8 12-75.4 32-102.8 15.8-21.6 34.6-37.9 55.9-48.5 18.6-9.1 38.6-13.8 59.4-13.8M204.2 206.7c5.1 0 9.8 1.2 14.2 3.7 28.6 16.2 39.3 32.4 45.5 44.6 9.3 18.7 14 42.5 19.4 70.1 5.2 26.4 11.1 56.4 22.4 89.3 6.5 18.9 15 36.5 25.4 52.4l16.2 24.9c-41.6-1.8-78.4-8.5-109.5-19.9-37.5-13.7-66.4-34.5-86-61.5-18.4-25.5-28.5-52.4-30-80-1.4-23.7 3.7-47.5 14.6-68.8 8.7-17 21-31.9 34.6-41.8 11.4-8.4 23.2-13 33.2-13m567.5 186.4c17 0 33.6 2.6 49.1 7.7 19.3 6.3 36.3 15.3 50.6 26.7 12.7 10.1 23.3 22.1 31.6 35.8 14.7 24.4 21.5 54.1 18.7 81.7-1.8 17.3-7.2 32.6-15.3 43.1-9.3 12.2-18.8 13.2-21.9 13.6-6.2 0.7-12.2 1.1-17.8 1.1-19.3 0-34.9-4.1-50.6-13.4-16.6-9.8-32.8-24.9-51.6-42.3-19.7-18.3-42.1-39.1-70.6-59.1-16.7-11.7-34.4-21.1-52.5-27.9L614.6 450c25.6-16.9 50.8-30.3 75.1-39.7 28.9-11.5 56.5-17.2 82-17.2m-293.4 27.6l31.1 7.9c13.8 3.5 26.7 10.6 37.2 20.4l26 24.2 1.3 35.4c0.1 1.3 0.1 2.4 0.1 3.4 0 13.8-3.1 26.9-9.4 39.1l-17.3 33.8-36.4 10c-7.4 2-15.1 3.1-22.9 3.1-3.9 0-7.8-0.3-11.7-0.8l-33.5-4.5-21.5-26.4c-8.4-10.2-14.3-22.4-17.2-35.2l-7.9-34.8 18.9-30c8.4-13.4 20.4-24.2 34.5-31.2l28.7-14.4m98.5 191.2l1.1 0.8c33.5 26.9 59.7 55.1 77.9 83.6 20.3 31.6 30.5 63.8 30.3 95.7-0.2 55.3-23.9 89-43.7 107.6-23.7 22.2-55.2 35.4-84.3 35.4-11.7 0-22-2.2-29.9-6.4-6.3-3.4-10.7-7.9-13.5-13.9-13.6-29.9-12.8-49.3-10.5-62.8 3.4-20.6 13.6-42.6 25.5-68.1 11.3-24.4 24.2-52.1 34.4-85.4 5.2-17.1 8.6-34.3 9.9-51.3l2.8-35.2M419.3 639c-14.6 39.2-32.4 72.4-52.9 98.6-24.7 31.6-53.5 52.9-85.4 63.1-17.2 5.5-34.1 8.3-50.5 8.3-36.2 0-62.9-13.7-78.9-25.2-20.4-14.6-36.1-34.4-44.4-55.6-4.8-12.3-6.6-24-5.2-33.8 1.1-7.8 4.1-14 9.3-18.7 27.9-25.5 50.5-30.8 76-30.8 15.9 0 33.2 2.1 53.2 4.5 24.7 3 52.7 6.4 84.3 6.4 2.5 0 5 0 7.5-0.1 22.6-0.4 44.3-3.7 64.7-10l22.3-6.7M603.7 39c-53.8 0-112.1 23.4-155.6 82.8-57 77.9-47.2 181.7-20.7 268.4-22.4 11.2-41.2 28.3-54.5 49.3-7.8-11.9-14.6-25.6-20-41.4-34.6-100.6-14-177-109.9-231.3-12.3-7-25.5-10.2-38.8-10.2-90.5 0-189.6 148.8-92.9 282.8 55.5 76.9 154.7 100.2 244.1 102.5 4.7 20.8 14.2 39.8 27.2 55.8-15.2 4.6-32.1 7.5-50.9 7.8-2.2 0-4.4 0.1-6.6 0.1-53.6 0-97-10.9-137.5-10.9-37.1 0-71.8 9.1-109.8 43.9C6.8 703.7 88.6 859 230.6 859c20.7 0 42.7-3.3 65.7-10.7 90.7-29.1 143.5-116.9 173.3-201.5 6 0.8 12.1 1.2 18.4 1.2 12.5 0 24.7-1.7 36.2-4.9-1 12.8-3.5 26.4-7.8 40.5-31.1 101.7-92.7 151.4-47 251.7 15.2 33.3 49.6 49.6 88.8 49.6 79 0 177.5-66.1 178-192.8 0.3-90.3-60-164.5-126.9-218.4 9.5-18.6 14.8-39.6 14.8-61.8 0-1.8 0-3.5-0.1-5.3 13.6 5.1 27.4 12.3 41.3 22 80.6 56.5 110.8 123.9 201.4 123.9 7.4 0 15.2-0.4 23.4-1.4 109.5-12.5 126.4-238.7-53.7-298-21.4-7.1-43.1-10.2-64.7-10.2-68.2 0-135.3 31.4-191.1 69.3-16.4-15.2-36.5-26.5-58.9-32.2 10.1-14.5 23.3-28.5 40.3-41.4 85-64 164-68 186-176C761.6 96.8 688.3 39 603.7 39z" fill="#8a8a8a" p-id="16329"></path></svg>